<svg width="31" height="29" viewBox="0 0 31 29" fill="none" xmlns="http://www.w3.org/2000/svg">
<path d="M16.8091 26.8699L16.8091 28.3699L13.8091 28.3699L13.8091 26.8699L16.8091 26.8699ZM13.8091 26.8699L13.8091 -9.53909e-06L16.8091 -9.5344e-06L16.8091 26.8699L13.8091 26.8699Z" fill="#FF5C00"/>
<path d="M12.7794 21.9679L13.8401 23.0286L11.7187 25.1499L10.6581 24.0892L12.7794 21.9679ZM10.6581 24.0892L0.939197 14.3703L3.06052 12.249L12.7794 21.9679L10.6581 24.0892Z" fill="#FF5C00"/>
<path d="M27.7255 12.1131L28.7862 11.0525L30.9075 13.1738L29.8468 14.2345L27.7255 12.1131ZM17.5995 22.2391L27.7255 12.1131L29.8468 14.2345L19.7208 24.3605L17.5995 22.2391Z" fill="#FF5C00"/>
</svg>
