<svg width="40" height="40" viewBox="0 0 40 40" fill="none" xmlns="http://www.w3.org/2000/svg">
<path d="M0 0H20H30L40 10V20V40H0V0Z" fill="#DD5001"/>
<path d="M27.7534 21.4441L29.2534 21.4441L29.2534 18.4441L27.7534 18.4441L27.7534 21.4441ZM27.7534 18.4441L9.84016 18.4441L9.84016 21.4441L27.7534 21.4441L27.7534 18.4441Z" fill="white"/>
<path d="M24.1317 18.6112L25.1924 19.6719L27.3137 17.5505L26.253 16.4899L24.1317 18.6112ZM26.253 16.4899L19.7738 10.0106L17.6525 12.1319L24.1317 18.6112L26.253 16.4899Z" fill="white"/>
<path d="M17.5622 27.868L16.5015 28.9287L18.6229 31.05L19.6835 29.9893L17.5622 27.868ZM24.3129 21.1173L17.5622 27.868L19.6835 29.9893L26.4342 23.2386L24.3129 21.1173Z" fill="white"/>
</svg>
