<svg width="40" height="40" viewBox="0 0 40 40" fill="none" xmlns="http://www.w3.org/2000/svg">
<path d="M40 0H20H10L-1.19209e-06 10V20V40H40V0Z" fill="#DD5001"/>
<path d="M12.2466 21.4441L10.7466 21.4441L10.7466 18.4441L12.2466 18.4441L12.2466 21.4441ZM12.2466 18.4441L30.1598 18.4441L30.1598 21.4441L12.2466 21.4441L12.2466 18.4441Z" fill="white"/>
<path d="M15.8683 18.6112L14.8076 19.6719L12.6863 17.5505L13.747 16.4899L15.8683 18.6112ZM13.747 16.4899L20.2262 10.0106L22.3475 12.1319L15.8683 18.6112L13.747 16.4899Z" fill="white"/>
<path d="M22.4378 27.868L23.4985 28.9287L21.3771 31.05L20.3165 29.9893L22.4378 27.868ZM15.6871 21.1173L22.4378 27.868L20.3165 29.9893L13.5658 23.2386L15.6871 21.1173Z" fill="white"/>
</svg>
