<svg width="30" height="30" viewBox="0 0 30 30" fill="none" xmlns="http://www.w3.org/2000/svg">
<path d="M22.3913 6.28685L15 13.6781L7.60877 6.28685C7.431 6.12417 7.19732 6.03636 6.95641 6.0417C6.7155 6.04703 6.48594 6.14511 6.31555 6.3155C6.14516 6.48589 6.04708 6.71546 6.04174 6.95636C6.0364 7.19727 6.12422 7.43095 6.28689 7.60872L13.6744 15L6.28502 22.3893C6.19474 22.4754 6.12258 22.5786 6.07276 22.6929C6.02295 22.8072 5.99649 22.9304 5.99494 23.0551C5.9934 23.1798 6.0168 23.3035 6.06377 23.419C6.11074 23.5346 6.18032 23.6395 6.26844 23.7278C6.35656 23.816 6.46143 23.8858 6.57689 23.9329C6.69235 23.98 6.81606 24.0036 6.94076 24.0022C7.06546 24.0009 7.18863 23.9746 7.30302 23.9249C7.41742 23.8753 7.52073 23.8033 7.60689 23.7131L15 16.3237L22.3913 23.715C22.569 23.8776 22.8027 23.9655 23.0436 23.9601C23.2845 23.9548 23.5141 23.8567 23.6845 23.6863C23.8549 23.5159 23.953 23.2864 23.9583 23.0455C23.9636 22.8045 23.8758 22.5709 23.7131 22.3931L16.3219 15.0019L23.7131 7.60872C23.8034 7.52269 23.8756 7.41948 23.9254 7.30515C23.9752 7.19083 24.0017 7.0677 24.0032 6.943C24.0048 6.8183 23.9814 6.69456 23.9344 6.57903C23.8874 6.46351 23.8178 6.35854 23.7297 6.2703C23.6416 6.18205 23.5367 6.11232 23.4213 6.06518C23.3058 6.01805 23.1821 5.99448 23.0574 5.99584C22.9327 5.99721 22.8095 6.02349 22.6951 6.07315C22.5807 6.1228 22.4774 6.19482 22.3913 6.28497V6.28685Z" fill="#FF5C00"/>
</svg>
