<svg width="119" height="40" viewBox="0 0 119 40" fill="none" xmlns="http://www.w3.org/2000/svg">
<rect x="0.777344" width="118" height="40" rx="3" fill="white"/>
<path d="M18.5819 19.4617L8.8667 30.0059C8.86761 30.0078 8.86761 30.0106 8.86852 30.0125C9.16691 31.1574 10.1889 32 11.4025 32C11.8879 32 12.3433 31.8656 12.7338 31.6305L12.7648 31.6118L23.7 25.1593L18.5819 19.4617Z" fill="#EA4335"/>
<path d="M28.4105 17.6662L28.4014 17.6597L23.6802 14.8612L18.3613 19.7013L23.6994 25.1582L28.395 22.3878C29.2181 21.9324 29.7774 21.045 29.7774 20.0223C29.7774 19.0052 29.2263 18.1225 28.4105 17.6662Z" fill="#FBBC04"/>
<path d="M8.86677 9.99325C8.80837 10.2135 8.77734 10.4449 8.77734 10.6838V29.3163C8.77734 29.5552 8.80837 29.7866 8.86768 30.0059L18.916 19.7313L8.86677 9.99325Z" fill="#4285F4"/>
<path d="M18.654 20L23.6818 14.8594L12.7594 8.3836C12.3624 8.14005 11.8989 8.00009 11.4034 8.00009C10.1898 8.00009 9.16599 8.84456 8.86761 9.99043C8.86761 9.99136 8.8667 9.9923 8.8667 9.99323L18.654 20Z" fill="#34A853"/>
<path d="M44.3873 11.71C44.3873 12.71 44.0907 13.5067 43.4973 14.1C42.8307 14.8067 41.954 15.16 40.8673 15.16C39.8273 15.16 38.9473 14.8 38.2273 14.08C37.5073 13.36 37.1473 12.4733 37.1473 11.42C37.1473 10.3667 37.5073 9.48 38.2273 8.76C38.9473 8.04 39.8273 7.68 40.8673 7.68C41.394 7.68 41.8907 7.77333 42.3573 7.96C42.824 8.14667 43.2073 8.41 43.5073 8.75L42.8473 9.41C42.6273 9.14333 42.3407 8.93667 41.9873 8.79C41.6407 8.63667 41.2673 8.56 40.8673 8.56C40.0873 8.56 39.4273 8.83 38.8873 9.37C38.354 9.91667 38.0873 10.6 38.0873 11.42C38.0873 12.24 38.354 12.9233 38.8873 13.47C39.4273 14.01 40.0873 14.28 40.8673 14.28C41.5807 14.28 42.174 14.08 42.6473 13.68C43.1207 13.28 43.394 12.73 43.4673 12.03H40.8673V11.17H44.3373C44.3707 11.3567 44.3873 11.5367 44.3873 11.71ZM49.6852 7.84V8.72H46.4252V10.99H49.3652V11.85H46.4252V14.12H49.6852V15H45.5052V7.84H49.6852ZM53.3651 8.72V15H52.4451V8.72H50.4451V7.84H55.3651V8.72H53.3651ZM59.4427 15H58.5227V7.84H59.4427V15ZM63.326 8.72V15H62.406V8.72H60.406V7.84H65.326V8.72H63.326ZM75.2984 11.42C75.2984 12.48 74.945 13.3667 74.2384 14.08C73.525 14.8 72.6517 15.16 71.6184 15.16C70.5784 15.16 69.705 14.8 68.9984 14.08C68.2917 13.3667 67.9384 12.48 67.9384 11.42C67.9384 10.36 68.2917 9.47333 68.9984 8.76C69.705 8.04 70.5784 7.68 71.6184 7.68C72.6584 7.68 73.5317 8.04333 74.2384 8.77C74.945 9.48333 75.2984 10.3667 75.2984 11.42ZM68.8784 11.42C68.8784 12.2467 69.1384 12.93 69.6584 13.47C70.185 14.01 70.8384 14.28 71.6184 14.28C72.3984 14.28 73.0484 14.01 73.5684 13.47C74.095 12.9367 74.3584 12.2533 74.3584 11.42C74.3584 10.5867 74.095 9.90333 73.5684 9.37C73.0484 8.83 72.3984 8.56 71.6184 8.56C70.8384 8.56 70.185 8.83 69.6584 9.37C69.1384 9.91 68.8784 10.5933 68.8784 11.42ZM77.3041 15H76.3841V7.84H77.5041L80.9841 13.41H81.0241L80.9841 12.03V7.84H81.9041V15H80.9441L77.3041 9.16H77.2641L77.3041 10.54V15Z" fill="black"/>
<path d="M94.2955 31.4097H95.9243V20.3981H94.2955V31.4097ZM108.966 24.3646L107.099 29.1388H107.043L105.105 24.3646H103.351L106.257 31.0371L104.601 34.749H106.299L110.777 24.3646H108.966ZM99.7292 30.1588C99.195 30.1588 98.4513 29.8902 98.4513 29.2234C98.4513 28.3742 99.3774 28.0483 100.178 28.0483C100.894 28.0483 101.231 28.2042 101.666 28.4165C101.54 29.4365 100.669 30.1588 99.7292 30.1588ZM99.9256 24.1241C98.7463 24.1241 97.5243 24.6482 97.0198 25.8101L98.4653 26.4188C98.7743 25.8101 99.3495 25.611 99.9535 25.611C100.796 25.611 101.652 26.121 101.666 27.0283V27.1411C101.371 26.971 100.74 26.7165 99.9675 26.7165C98.4094 26.7165 96.8225 27.5806 96.8225 29.1952C96.8225 30.6689 98.1004 31.6184 99.5319 31.6184C100.627 31.6184 101.231 31.1225 101.61 30.5411H101.666V31.3912H103.238V27.1692C103.238 25.2146 101.793 24.1241 99.9256 24.1241ZM89.8594 25.7053H87.5428V21.9308H89.8594C91.0771 21.9308 91.7685 22.9482 91.7685 23.8176C91.7685 24.6711 91.0771 25.7053 89.8594 25.7053ZM89.8176 20.3981H85.9149V31.4097H87.5428V27.2379H89.8176C91.6227 27.2379 93.3973 25.9184 93.3973 23.8176C93.3973 21.7168 91.6227 20.3981 89.8176 20.3981ZM68.5357 30.1606C67.4105 30.1606 66.4687 29.2102 66.4687 27.9047C66.4687 26.5852 67.4105 25.6198 68.5357 25.6198C69.6468 25.6198 70.518 26.5852 70.518 27.9047C70.518 29.2102 69.6468 30.1606 68.5357 30.1606ZM70.4063 24.9812H70.3495C69.9838 24.5417 69.2811 24.1444 68.3951 24.1444C66.5385 24.1444 64.8372 25.7898 64.8372 27.9047C64.8372 30.0047 66.5385 31.6369 68.3951 31.6369C69.2811 31.6369 69.9838 31.2396 70.3495 30.7851H70.4063V31.3251C70.4063 32.7582 69.6468 33.5246 68.423 33.5246C67.4245 33.5246 66.8056 32.8005 66.5525 32.1901L65.1323 32.7864C65.5399 33.78 66.6232 35 68.423 35C70.3355 35 71.953 33.8646 71.953 31.0978V24.3708H70.4063V24.9812ZM73.0782 31.4097H74.7096V20.3973H73.0782V31.4097ZM77.1135 27.777C77.0716 26.3298 78.2247 25.5916 79.054 25.5916C79.7016 25.5916 80.2498 25.9176 80.4323 26.3862L77.1135 27.777ZM82.1763 26.528C81.8673 25.6912 80.9246 24.1444 78.9981 24.1444C77.0856 24.1444 75.4969 25.6621 75.4969 27.8907C75.4969 29.9906 77.0716 31.6369 79.1805 31.6369C80.8827 31.6369 81.8673 30.5869 82.2749 29.9765L81.0092 29.1247C80.5876 29.7493 80.0107 30.1606 79.1805 30.1606C78.3513 30.1606 77.7603 29.7774 77.3806 29.0261L82.3448 26.9534L82.1763 26.528ZM42.6274 25.2939V26.883H46.3957C46.2831 27.777 45.9881 28.4297 45.5385 28.8834C44.9895 29.4374 44.1314 30.0479 42.6274 30.0479C40.3064 30.0479 38.4926 28.1602 38.4926 25.8189C38.4926 23.4767 40.3064 21.5899 42.6274 21.5899C43.8792 21.5899 44.7931 22.0867 45.4678 22.7253L46.579 21.604C45.6363 20.6959 44.3854 20 42.6274 20C39.4493 20 36.7773 22.6117 36.7773 25.8189C36.7773 29.0261 39.4493 31.6369 42.6274 31.6369C44.3427 31.6369 45.6363 31.0688 46.6488 30.0047C47.6902 28.9547 48.0132 27.4793 48.0132 26.2866C48.0132 25.9176 47.9852 25.5775 47.9285 25.2939H42.6274ZM52.2982 30.1606C51.173 30.1606 50.2024 29.2243 50.2024 27.8907C50.2024 26.5421 51.173 25.6198 52.2982 25.6198C53.4225 25.6198 54.3931 26.5421 54.3931 27.8907C54.3931 29.2243 53.4225 30.1606 52.2982 30.1606ZM52.2982 24.1444C50.2443 24.1444 48.5709 25.7194 48.5709 27.8907C48.5709 30.0479 50.2443 31.6369 52.2982 31.6369C54.3512 31.6369 56.0245 30.0479 56.0245 27.8907C56.0245 25.7194 54.3512 24.1444 52.2982 24.1444ZM60.4274 30.1606C59.3022 30.1606 58.3316 29.2243 58.3316 27.8907C58.3316 26.5421 59.3022 25.6198 60.4274 25.6198C61.5525 25.6198 62.5223 26.5421 62.5223 27.8907C62.5223 29.2243 61.5525 30.1606 60.4274 30.1606ZM60.4274 24.1444C58.3744 24.1444 56.701 25.7194 56.701 27.8907C56.701 30.0479 58.3744 31.6369 60.4274 31.6369C62.4804 31.6369 64.1538 30.0479 64.1538 27.8907C64.1538 25.7194 62.4804 24.1444 60.4274 24.1444Z" fill="black"/>
</svg>
