<svg width="60" height="61" viewBox="0 0 60 61" fill="none" xmlns="http://www.w3.org/2000/svg">
<path fill-rule="evenodd" clip-rule="evenodd" d="M29.13 2.56674C28.9788 2.62798 28.7034 2.97222 28.518 3.33209C28.2402 3.87135 28.2272 4.09831 28.444 4.62389C28.5887 4.97442 28.8821 5.35536 29.0958 5.47025C29.3098 5.58514 31.3895 5.67918 33.7175 5.67918H37.9503V10.5658V15.4524H36.935H35.9198L32.1215 19.2481L28.3233 23.0438V26.957V30.87L30.7571 33.3133L33.1909 35.7566V33.3571V30.9575L32.4337 30.2208L31.6765 29.4841V26.9715V24.4592L34.4379 21.6934L37.1992 18.9273H43.0403H48.8816L51.6367 21.6994L54.392 24.4716V26.9763V29.4811L53.5266 30.3294L52.6613 31.1777V33.4141C52.6613 34.644 52.7359 35.6504 52.8272 35.6504C52.9185 35.6504 54.038 34.5981 55.3151 33.3122L57.637 30.9738V26.9572V22.9404L53.9762 19.27L50.3153 15.5994L49.1086 15.4991L47.9018 15.3985V10.5389V5.67918H52.3368C56.4833 5.67918 56.7998 5.65095 57.2044 5.24481C57.7781 4.66885 57.7781 3.43177 57.2044 2.85581C56.7803 2.43013 56.495 2.42188 43.0883 2.4386C35.5626 2.44794 29.2812 2.50571 29.13 2.56674ZM11.449 28.7342C10.4912 29.26 10.4755 29.3736 10.4755 35.6919V41.7315H16.9656H23.4557V35.5576V29.3836L22.8857 28.9336C22.3442 28.5059 22.0543 28.4838 17.0986 28.4899C13.7424 28.4942 11.7274 28.5813 11.449 28.7342ZM37.4095 28.7342C36.4517 29.26 36.436 29.3736 36.436 35.6919V41.7315H43.0343H49.6325V35.7768C49.6325 32.5017 49.572 29.6637 49.4982 29.4704C49.167 28.6041 48.3637 28.4831 42.991 28.4899C39.684 28.4942 37.6875 28.5815 37.4095 28.7342ZM6.45676 45.434C4.99951 45.9996 3.78976 47.072 3.00488 48.4948C2.43418 49.5292 2.36279 49.8641 2.36279 51.5047C2.36279 53.1453 2.43418 53.4802 3.00488 54.5146C3.80641 55.9674 5.01098 57.0179 6.52859 57.588C7.68145 58.0211 8.06004 58.0271 30.3428 57.9698L52.9858 57.9116L54.0811 57.3313C56.4009 56.1022 57.6275 54.0868 57.6275 51.5047C57.6275 48.9226 56.4009 46.9072 54.0811 45.6781L52.9858 45.0978L30.2703 45.0529C8.16107 45.009 7.52569 45.0192 6.45676 45.434ZM11.5571 50.4188C12.4666 51.3318 11.8081 53.025 10.5434 53.025C9.79788 53.025 8.96109 52.237 8.96109 51.5351C8.96109 50.2444 10.657 49.5151 11.5571 50.4188ZM18.0473 50.4188C18.9567 51.3318 18.2982 53.025 17.0335 53.025C16.288 53.025 15.4512 52.237 15.4512 51.5351C15.4512 50.2444 17.1471 49.5151 18.0473 50.4188ZM24.5374 50.4188C25.4469 51.3318 24.7883 53.025 23.5236 53.025C22.7781 53.025 21.9413 52.237 21.9413 51.5351C21.9413 50.2444 23.6372 49.5151 24.5374 50.4188ZM31.0275 50.4188C31.937 51.3318 31.2785 53.025 30.0138 53.025C29.2683 53.025 28.4315 52.237 28.4315 51.5351C28.4315 50.2444 30.1273 49.5151 31.0275 50.4188ZM37.5176 50.4188C38.4271 51.3318 37.7686 53.025 36.5039 53.025C35.7584 53.025 34.9216 52.237 34.9216 51.5351C34.9216 50.2444 36.6175 49.5151 37.5176 50.4188ZM44.0078 50.4188C44.9173 51.3318 44.2587 53.025 42.994 53.025C42.2485 53.025 41.4117 52.237 41.4117 51.5351C41.4117 50.2444 43.1076 49.5151 44.0078 50.4188ZM50.4979 50.4188C51.4074 51.3318 50.7488 53.025 49.4841 53.025C48.7386 53.025 47.9018 52.237 47.9018 51.5351C47.9018 50.2444 49.5977 49.5151 50.4979 50.4188Z" fill="url(#paint0_linear_513_843)"/>
<defs>
<linearGradient id="paint0_linear_513_843" x1="57.637" y1="30.2147" x2="2.36279" y2="30.2147" gradientUnits="userSpaceOnUse">
<stop stop-color="#FF5C00"/>
<stop offset="1" stop-color="#FE8C00"/>
</linearGradient>
</defs>
</svg>
