<svg width="60" height="61" viewBox="0 0 60 61" fill="none" xmlns="http://www.w3.org/2000/svg">
<path fill-rule="evenodd" clip-rule="evenodd" d="M25.4317 4.10732C22.0905 4.71543 18.4878 6.0304 18.2692 6.72163C18.1273 7.17029 19.6905 10.5057 20.2683 10.987C20.5496 11.2214 20.969 11.1512 22.6001 10.597C25.6004 9.57736 27.0247 9.34114 30.1163 9.3502C36.146 9.36787 41.3601 11.6035 45.4887 15.9418C52.2572 23.0541 53.4452 33.4597 48.465 42.0135L47.8895 43.0019L46.3859 41.5039C44.9023 40.0261 44.2463 39.7267 43.6976 40.2775C43.3132 40.6634 43.3132 51.1252 43.6976 51.5111C43.8932 51.7075 45.4774 51.7829 49.4054 51.7829C56.3963 51.7829 56.5209 51.6955 53.6521 48.7985L51.9206 47.0498L52.7307 45.8248C54.5692 43.0454 56.0733 39.3118 56.7629 35.8158C57.2245 33.4764 57.1629 27.9146 56.6486 25.5107C54.279 14.4334 45.5961 6.05418 34.4682 4.10596C32.1364 3.69784 27.6787 3.69852 25.4317 4.10732ZM4.89393 10.3816C4.38249 10.895 4.62704 11.3494 6.35493 13.0942L8.08644 14.8429L7.2763 16.0679C5.48005 18.7837 4.08063 22.1558 3.35758 25.5107C2.78161 28.1823 2.78116 33.7061 3.35645 36.382C6.73778 52.1104 22.7319 61.6431 37.91 56.9764C40.296 56.2428 41.5932 55.6284 41.7407 55.1618C41.8937 54.6778 40.1371 51.1451 39.5738 50.804C39.3238 50.6527 38.7858 50.7599 37.769 51.1637C32.7626 53.1513 26.5707 53.0401 21.4931 50.8708C17.8801 49.3273 14.1536 46.16 11.9785 42.7842C7.80714 36.309 7.34511 28.1735 10.7596 21.3208C12.0929 18.6449 11.9246 18.6988 13.6347 20.4022C15.1052 21.8671 15.7619 22.1649 16.3094 21.6152C16.6939 21.2293 16.6939 10.7675 16.3094 10.3816C15.9248 9.99545 5.27858 9.99545 4.89393 10.3816ZM30.0371 17.4139C25.4175 24.6241 19.9642 33.4467 19.9642 33.7104C19.9642 34.4693 20.4707 34.5701 24.2816 34.5701H28.0575L27.9602 35.3062C27.9068 35.7109 27.7015 38.2126 27.5043 40.8655C27.1133 46.1237 27.1582 46.4345 28.2916 46.3022C28.7911 46.2438 29.6689 44.975 34.4504 37.4011C37.5172 32.5431 40.0302 28.4102 40.0347 28.2172C40.0532 27.4218 39.5749 27.3226 35.7255 27.3226H31.9496L32.0468 26.5865C32.1003 26.1818 32.3056 23.6801 32.5027 21.0273C32.8897 15.8254 32.8524 15.5454 31.7756 15.5454C31.3445 15.5454 30.9901 15.9264 30.0371 17.4139Z" fill="url(#paint0_linear_513_845)"/>
<defs>
<linearGradient id="paint0_linear_513_845" x1="57.0747" y1="30.9826" x2="2.92529" y2="30.9826" gradientUnits="userSpaceOnUse">
<stop stop-color="#FF5C00"/>
<stop offset="1" stop-color="#FE8C00"/>
</linearGradient>
</defs>
</svg>
