<svg width="60" height="61" viewBox="0 0 60 61" fill="none" xmlns="http://www.w3.org/2000/svg">
<path fill-rule="evenodd" clip-rule="evenodd" d="M40.2786 4.42913C34.1126 6.06637 27.312 9.6594 23.3609 13.3673L22.5705 14.109L24.8072 16.3637C26.0376 17.604 27.155 18.6187 27.2907 18.6184C27.4264 18.6184 28.1669 17.9116 28.9365 17.0477C31.7907 13.8434 38.3064 8.68915 42.7141 6.14892C43.9805 5.41905 44.2705 4.52917 43.3952 4.05885C42.8012 3.73981 42.9342 3.72402 40.2786 4.42913ZM16.2425 17.3561C12.675 20.9375 12.66 20.7138 16.7349 24.7614C20.7863 28.7857 20.5171 28.7699 24.1179 25.1948C27.7715 21.5673 27.7804 21.753 23.7576 17.7494C20.928 14.9334 20.6654 14.7338 19.7911 14.7338C18.9228 14.7338 18.6645 14.9246 16.2425 17.3561ZM25.7353 26.0505L23.2078 28.5669L23.9061 29.2987C24.4815 29.9016 24.799 30.0312 25.7082 30.0342C29.4964 30.0465 34.1738 32.4714 36.5771 35.6692C38.3761 38.0628 39.7373 41.546 39.7477 43.783C39.7508 44.4359 40.0994 44.8674 42.1726 46.7865C44.2673 48.7256 44.7278 49.2991 45.5867 51.0388C47.5716 55.0606 50.169 57.7441 52.4018 58.0801C54.4001 58.3809 56.705 56.8187 57.0593 54.9232C57.4703 52.7241 58.0706 53.4301 42.577 37.8906L28.263 23.534L25.7353 26.0505ZM11.8433 24.9724C8.12927 29.2135 4.63463 36.1308 3.21563 42.0494C2.64073 44.4481 2.63396 44.2708 3.31722 44.7202C4.14196 45.2627 4.55941 44.9863 5.51984 43.2622C6.59805 41.3265 9.87792 36.7115 11.645 34.6438C12.3867 33.7758 14.0529 32.0162 15.3471 30.7337L17.7004 28.4018L15.3389 26.0395L12.9771 23.6775L11.8433 24.9724ZM22.6274 32.0888C16.2093 33.2795 11.9318 38.4185 11.9403 44.9278C11.9453 48.8938 13.0049 51.5329 15.6676 54.212C17.6932 56.2498 19.5654 57.2368 22.5565 57.8431C27.7446 58.8947 32.9596 56.657 35.9812 52.0828C37.219 50.2091 37.8423 48.2261 37.9901 45.6915C38.4828 37.2462 30.9205 30.5504 22.6274 32.0888ZM25.676 36.9811C25.7442 37.6845 25.8281 37.7491 26.8234 37.8615C29.7472 38.1924 31.3539 41.7427 29.6914 44.1989L29.064 45.126L29.5557 45.6514C29.8261 45.9406 30.1427 46.6141 30.259 47.1483C30.7778 49.5285 29.3375 51.662 26.9337 52.0741C25.9747 52.2382 25.8323 52.3448 25.7227 52.9793C25.5086 54.2207 24.0304 53.9796 24.0304 52.7032C24.0304 52.1411 23.9765 52.1258 22.0041 52.1258C20.528 52.1258 19.8989 52.0301 19.6866 51.7732C19.2493 51.2444 19.4812 50.5871 20.1618 50.4259L20.7653 50.2831L20.8303 44.8917C20.8683 41.7575 20.803 39.4999 20.6748 39.4999C20.3045 39.4999 20.1476 38.7642 20.4119 38.2684C20.6216 37.8748 20.93 37.8003 22.3458 37.8003C23.9424 37.8003 24.0304 37.7711 24.0304 37.2418C24.0304 35.9178 25.5498 35.6772 25.676 36.9811ZM22.6303 41.8673L22.7002 43.9918H25.0394C27.1826 43.9918 27.4312 43.9425 28.0022 43.4033C28.8526 42.6003 28.8664 41.1763 28.032 40.3388C27.4803 39.7847 27.2665 39.7427 24.9995 39.7427H22.5604L22.6303 41.8673ZM22.7606 45.9537C22.661 46.0542 22.5792 47.0354 22.5792 48.1341C22.5792 50.4262 22.58 50.4269 24.7153 50.4247C27.4771 50.422 28.6257 49.7058 28.6257 47.9865C28.6257 47.3603 28.4485 46.9443 28.002 46.5228C27.453 46.0047 27.1134 45.9245 25.1601 45.8527C23.9402 45.8078 22.8603 45.8532 22.7606 45.9537Z" fill="url(#paint0_linear_513_847)"/>
<defs>
<linearGradient id="paint0_linear_513_847" x1="57.2053" y1="30.9828" x2="2.79395" y2="30.9828" gradientUnits="userSpaceOnUse">
<stop stop-color="#FF5C00"/>
<stop offset="1" stop-color="#FE8C00"/>
</linearGradient>
</defs>
</svg>
