<svg width="60" height="61" viewBox="0 0 60 61" fill="none" xmlns="http://www.w3.org/2000/svg">
<path fill-rule="evenodd" clip-rule="evenodd" d="M28.5836 1.86389L27.9482 2.49901V11.181V19.8628H30.0187H32.0891V11.181V2.49901L31.4538 1.86389C31.0534 1.46326 30.5228 1.22852 30.0187 1.22852C29.5145 1.22852 28.9839 1.46326 28.5836 1.86389ZM45.4683 1.51217C41.3439 2.4827 37.6403 5.43235 35.6866 9.30284C34.8356 10.9887 34.0918 13.8542 34.2106 14.9891L34.289 15.7394L37.33 13.6112L40.371 11.483V9.86807C40.371 8.7451 40.495 8.1294 40.7776 7.84652C41.5362 7.08821 42.2187 7.54759 42.421 8.95267L42.5709 9.99153L44.5767 8.57895L46.5824 7.16611V5.50042C46.5824 4.12045 46.6681 3.78891 47.0814 3.56789C48.0209 3.06502 48.4337 3.47679 48.7075 5.19036C48.7686 5.57159 49.345 5.27008 51.8233 3.56038C53.496 2.40661 54.8643 1.40994 54.8643 1.3455C54.8643 1.12913 46.4634 1.27795 45.4683 1.51217ZM53.3115 4.90438L49.8175 7.31052L51.065 7.45391C52.6588 7.63688 53.1906 8.30047 52.3873 9.10381C52.0707 9.42034 51.3955 9.5104 49.3426 9.5104C46.7237 9.5104 46.6948 9.51739 45.285 10.4755L43.8649 11.4406L44.9869 11.5956C46.4686 11.8006 46.9507 12.4696 46.1758 13.2448C45.8617 13.5587 45.1947 13.6513 43.2461 13.6513H40.723L37.962 15.5523C36.4433 16.5979 35.2771 17.5296 35.3703 17.6228C35.4637 17.7159 37.5342 17.7923 39.9717 17.7923C44.9369 17.7923 46.4403 17.5273 49.1705 16.1706C53.5682 13.9857 57.1491 8.24664 56.8838 3.80936L56.8054 2.49823L53.3115 4.90438ZM5.17301 3.39138C5.17301 3.46928 6.54133 4.47708 8.21402 5.63085C10.6924 7.34055 11.2687 7.64206 11.3298 7.26083C11.6036 5.54726 12.0164 5.1355 12.9559 5.63836C13.3692 5.85938 13.4549 6.19092 13.4549 7.57089V9.23658L15.4607 10.6494L17.4664 12.062L17.6163 11.0231C17.8187 9.61807 18.5012 9.15868 19.2597 9.91699C19.5426 10.2001 19.6663 10.8161 19.6663 11.9424V13.5613L22.7073 15.6706L25.7483 17.7801L25.8267 17.0448C25.9463 15.9258 25.1986 13.053 24.3507 11.3733C22.6726 8.04917 19.8917 5.52474 16.3994 4.15564C14.7476 3.5081 14.28 3.45039 9.89627 3.35385C7.29835 3.2964 5.17301 3.31348 5.17301 3.39138ZM3.10254 5.94686C3.10254 11.9908 7.89853 17.8927 14.0916 19.4699C15.6677 19.8713 24.3065 20.0538 24.667 19.6932C24.7602 19.6001 23.594 18.6684 22.0753 17.6228L19.3143 15.7218H16.7912C14.8426 15.7218 14.1757 15.6292 13.8615 15.3152C13.0866 14.5401 13.5688 13.8711 15.0505 13.6661L16.1724 13.5111L14.7523 12.546C13.3426 11.5879 13.3136 11.5809 10.6947 11.5809C8.64183 11.5809 7.96659 11.4908 7.65007 11.1743C6.84673 10.3709 7.37858 9.70735 8.97233 9.52438L10.2198 9.381L6.98467 7.16068C5.20536 5.93936 3.60411 4.8552 3.42605 4.75142C3.18406 4.61011 3.10254 4.91111 3.10254 5.94686ZM24.5477 22.427C24.013 22.8592 23.9204 23.2029 23.8073 25.1727L23.6778 27.4246L22.7094 27.9787L21.7412 28.5329L19.9551 27.5623C17.9786 26.4885 17.1359 26.3671 16.3541 27.0447C15.5782 27.7168 11.3844 35.1516 11.3844 35.8546C11.3844 36.8784 11.842 37.403 13.5877 38.379L15.2666 39.3179V40.5675V41.817L13.5877 42.756C11.842 43.7319 11.3844 44.2565 11.3844 45.2804C11.3844 45.9833 15.5782 53.4181 16.3541 54.0902C17.1359 54.7678 17.9786 54.6464 19.9551 53.5726L21.7412 52.6021L22.7094 53.1562L23.6778 53.7103L23.8073 55.9622C23.9964 59.2522 23.8996 59.2017 30.0187 59.2017C36.1377 59.2017 36.0409 59.2522 36.2301 55.9622L36.3595 53.7103L37.3279 53.1562L38.2962 52.6021L40.0822 53.5726C42.0587 54.6464 42.9014 54.7678 43.6833 54.0902C44.4592 53.4181 48.6529 45.9833 48.6529 45.2804C48.6529 44.2565 48.1953 43.7319 46.4497 42.756L44.7708 41.817V40.5675V39.3179L46.4497 38.379C48.1953 37.403 48.6529 36.8784 48.6529 35.8546C48.6529 35.1516 44.4592 27.7168 43.6833 27.0447C42.9014 26.3671 42.0587 26.4885 40.0822 27.5623L38.2962 28.5329L37.3279 27.9787L36.3595 27.4246L36.2301 25.1727C36.0409 21.8828 36.1377 21.9332 30.0187 21.9332C25.6225 21.9332 25.1003 21.9803 24.5477 22.427ZM33.3425 33.0726C34.9472 33.7797 36.8427 35.684 37.5591 37.3085C38.3671 39.1407 38.3671 41.9943 37.5591 43.8264C36.8321 45.475 34.9469 47.3519 33.2538 48.1128C31.4566 48.9205 28.5975 48.9185 26.7597 48.1079C25.1111 47.3809 23.2342 45.4957 22.4734 43.8026C21.663 41.9995 21.663 39.1347 22.4736 37.3324C23.5034 35.0422 25.7408 33.1541 28.1382 32.5522C29.5135 32.2066 31.9248 32.4479 33.3425 33.0726ZM27.2127 35.0207C24.8722 36.2045 23.6626 38.3937 23.858 41.0926C24.0016 43.0802 25.0539 44.8052 26.7701 45.8663C27.8915 46.5594 28.2647 46.6495 30.0187 46.6495C31.7726 46.6495 32.1458 46.5594 33.2672 45.8663C34.0525 45.3808 34.832 44.6013 35.3175 43.816C36.0106 42.6946 36.1007 42.3214 36.1007 40.5675C36.1007 38.8135 36.0106 38.4403 35.3175 37.3189C33.6143 34.5644 30.0906 33.5651 27.2127 35.0207Z" fill="url(#paint0_linear_513_849)"/>
<defs>
<linearGradient id="paint0_linear_513_849" x1="56.8977" y1="30.2151" x2="3.10254" y2="30.2151" gradientUnits="userSpaceOnUse">
<stop stop-color="#FF5C00"/>
<stop offset="1" stop-color="#FE8C00"/>
</linearGradient>
</defs>
</svg>
