<svg width="60" height="61" viewBox="0 0 60 61" fill="none" xmlns="http://www.w3.org/2000/svg">
<g clip-path="url(#clip0_513_830)">
<path d="M33.453 12.5078L39.3474 9.11192C42.5893 7.24436 45.5601 5.70899 45.9492 5.70003C46.7815 5.68021 58.8368 25.8119 58.5071 26.6711C58.3883 26.9806 55.5675 28.7708 52.2383 30.6497L46.1849 34.0649L42.5262 33.2344L38.8674 32.404L37.6927 33.5081C37.0467 34.1154 36.5181 34.8472 36.5181 35.1345C36.5181 35.4214 37.7913 36.9172 39.3474 38.4582L42.1767 41.2596V48.4198C42.1767 54.5132 42.0654 55.622 41.4307 55.8659C40.4579 56.2396 18.4316 56.2396 17.4588 55.8659C16.8241 55.622 16.7128 54.5132 16.7128 48.4184V41.2572L19.3233 38.6781C22.1809 35.8551 22.404 34.8491 20.4852 33.4416C19.3441 32.6041 19.2012 32.6041 16.0054 33.434C14.19 33.9059 12.3863 34.1947 11.9972 34.0762C10.285 33.5548 -0.263184 27.2439 -0.263184 26.7409C-0.263184 25.6713 11.4531 6.37193 12.1943 6.22047C13.2223 6.01003 24.1902 12.1902 24.9508 13.4085C25.2894 13.9507 25.8251 15.5167 26.142 16.8888C26.8229 19.8383 27.7019 20.8679 29.3712 20.6716C30.7651 20.5079 31.3838 19.4901 32.6141 15.3384L33.453 12.5078Z" fill="url(#paint0_linear_513_830)"/>
</g>
<defs>
<linearGradient id="paint0_linear_513_830" x1="58.5138" y1="30.9231" x2="-0.263184" y2="30.9231" gradientUnits="userSpaceOnUse">
<stop stop-color="#FF5C00"/>
<stop offset="1" stop-color="#FE8C00"/>
</linearGradient>
<clipPath id="clip0_513_830">
<rect width="60" height="60" fill="white" transform="translate(0 0.923096)"/>
</clipPath>
</defs>
</svg>
