<svg width="60" height="61" viewBox="0 0 60 61" fill="none" xmlns="http://www.w3.org/2000/svg">
<path d="M2.03126 11.5266C2.03126 5.07088 2.14367 4.10311 2.94615 3.63545C3.93684 3.05846 55.6685 2.82201 57.1428 3.38802C57.8449 3.65742 57.9699 4.86214 57.9699 11.3539V19.0023L53.9303 23.068C50.3141 26.7078 49.6847 27.1336 47.9182 27.1336H45.9457V30.9879V34.8427L48.156 35.1393C50.0527 35.3935 50.909 35.9909 54.1828 39.3414L57.9986 43.2475L57.8533 51.0146L57.7085 58.7818H30.0006H2.29266L2.14732 51.2453L2.00146 43.7083L6.3631 39.3446C10.0043 35.7006 10.9997 34.9802 12.3898 34.9802H14.0554V31.0569V27.1336H12.0547C10.2443 27.1336 9.67342 26.7418 6.04264 23.0089L2.03126 18.8841V11.5266Z" fill="url(#paint0_linear_513_828)"/>
<defs>
<linearGradient id="paint0_linear_513_828" x1="57.9986" y1="30.9231" x2="2.00146" y2="30.9231" gradientUnits="userSpaceOnUse">
<stop stop-color="#FF5C00"/>
<stop offset="1" stop-color="#FE8C00"/>
</linearGradient>
</defs>
</svg>
