<svg width="60" height="61" viewBox="0 0 60 61" fill="none" xmlns="http://www.w3.org/2000/svg">
<path d="M1.50049 18.3176C1.50049 10.4885 1.64585 3.70355 1.82368 3.24004C2.10109 2.516 3.45618 2.39719 11.4307 2.39719H20.7145L23.2761 4.79468C24.685 6.1133 25.9783 7.19217 26.1508 7.19217C26.3233 7.19217 26.5379 6.17297 26.6284 4.92787L26.7919 2.66357H42.4992H58.2065L58.3529 11.6941L58.4993 20.7242L54.934 24.3193L51.3682 27.915L54.7876 28.0759L58.2065 28.2368L58.3476 43.5419L58.4892 58.847L57.2257 59.1645C56.5314 59.3387 52.2233 59.4043 47.6528 59.3094L39.3423 59.1379L36.6609 56.4942L33.98 53.8501V55.9881C33.98 57.1634 33.6924 58.4133 33.341 58.7649C32.4295 59.677 3.05098 59.677 2.13943 58.7649C1.6959 58.3211 1.50049 55.5331 1.50049 49.656V41.1865L5.04874 37.5087L8.59699 33.831H5.68768C4.08766 33.831 2.49085 33.5433 2.13943 33.1917C1.6746 32.7265 1.50049 28.6785 1.50049 18.3176Z" fill="url(#paint0_linear_513_832)"/>
<defs>
<linearGradient id="paint0_linear_513_832" x1="58.4993" y1="30.9231" x2="1.50049" y2="30.9231" gradientUnits="userSpaceOnUse">
<stop stop-color="#FF5C00"/>
<stop offset="1" stop-color="#FE8C00"/>
</linearGradient>
</defs>
</svg>
