<svg width="166" height="30" viewBox="0 0 166 30" fill="none" xmlns="http://www.w3.org/2000/svg">
<g clip-path="url(#clip0_60_294)">
<path d="M34.4062 8.21732C34.4062 7.77482 34.7726 7.41492 35.2258 7.41492H41.4497C46.5214 7.41492 49.9998 10.4074 49.9998 15.0047C49.9998 19.6021 46.5226 22.5946 41.4497 22.5946H35.2258C34.7738 22.5946 34.4062 22.2358 34.4062 21.7922V8.21614V8.21732ZM41.2726 19.7106C44.3508 19.7106 46.3672 17.9111 46.3672 15.0047C46.3672 12.0984 44.352 10.2989 41.2726 10.2989H38.2281C38.0991 10.2989 37.9943 10.4015 37.9943 10.5278V19.4805C37.9943 19.6068 38.0991 19.7094 38.2281 19.7094H41.2726V19.7106Z" fill="white"/>
<path d="M50.834 7.41491C50.834 6.3529 51.6982 5.52808 52.9829 5.52808C54.2677 5.52808 55.1319 6.30924 55.1319 7.35001C55.1319 8.4781 54.2677 9.30175 52.9829 9.30175C51.6982 9.30175 50.834 8.4781 50.834 7.41491ZM51.7235 10.929H54.2424C54.5004 10.929 54.7101 11.1343 54.7101 11.3868V22.1367C54.7101 22.3892 54.5004 22.5946 54.2424 22.5946H51.7235C51.4655 22.5946 51.2558 22.3892 51.2558 22.1367V11.3868C51.2558 11.1343 51.4655 10.929 51.7235 10.929Z" fill="white"/>
<path d="M56.9505 15.1357H62.2826C62.5405 15.1357 62.7502 15.3411 62.7502 15.5936V17.3872C62.7502 17.6397 62.5405 17.845 62.2826 17.845H56.9505C56.6926 17.845 56.4829 17.6397 56.4829 17.3872V15.5936C56.4829 15.3411 56.6926 15.1357 56.9505 15.1357Z" fill="white"/>
<path d="M75.0363 15.9381V22.1449C75.0363 22.3939 74.8302 22.5957 74.5759 22.5957H72.263C72.0087 22.5957 71.8026 22.3939 71.8026 22.1449V21.5136C71.8026 21.4051 71.6616 21.3579 71.5941 21.444C70.9095 22.3113 69.7464 22.7692 68.17 22.7692C65.3786 22.7692 63.7178 21.2517 63.7178 19.2339C63.7178 17.216 65.2014 15.7422 68.8341 15.7422H71.3374C71.4724 15.7422 71.582 15.6289 71.5712 15.4968C71.4748 14.194 70.5865 13.4436 68.8341 13.4436C67.7614 13.4436 66.6562 13.7409 65.8173 14.2436C65.5859 14.3828 65.2834 14.3061 65.1605 14.0701L64.3493 12.5255C64.2372 12.3131 64.3156 12.0547 64.5253 11.9308C65.8113 11.1685 67.5649 10.7555 69.2993 10.7555C72.9319 10.7555 75.0363 12.404 75.0363 15.9381ZM71.5808 18.8645V18.1093C71.5808 17.8922 71.4013 17.7164 71.1795 17.7164H69.2113C67.5939 17.7164 67.0852 18.3017 67.0852 19.0828C67.0852 19.9289 67.8168 20.4918 69.0341 20.4918C70.1707 20.4918 71.1566 19.9843 71.5652 18.9507C71.576 18.9235 71.5808 18.894 71.5808 18.8657V18.8645Z" fill="white"/>
<path d="M102.47 15.9157V22.1367C102.47 22.3892 102.261 22.5945 102.003 22.5945H99.4837C99.2258 22.5945 99.016 22.3892 99.016 22.1367V16.4361C99.016 14.5492 98.1302 13.6819 96.6019 13.6819C94.9411 13.6819 93.7443 14.679 93.7443 16.8266V22.1367C93.7443 22.3892 93.5346 22.5945 93.2766 22.5945H90.7577C90.4998 22.5945 90.29 22.3892 90.29 22.1367V11.3868C90.29 11.1343 90.4998 10.929 90.7577 10.929H93.1224C93.3803 10.929 93.59 11.1343 93.59 11.3868V12.0146C93.59 12.116 93.7129 12.1668 93.7877 12.096C94.7121 11.2251 96.0258 10.7555 97.5324 10.7555C100.345 10.7555 102.472 12.3603 102.472 15.9169L102.47 15.9157Z" fill="white"/>
<path d="M103.242 16.7617C103.242 13.2489 106.01 10.7555 109.798 10.7555C113.586 10.7555 116.332 13.2489 116.332 16.7617C116.332 20.2746 113.585 22.7692 109.798 22.7692C106.011 22.7692 103.242 20.2758 103.242 16.7617ZM112.832 16.7617C112.832 14.7451 111.525 13.5309 109.797 13.5309C108.069 13.5309 106.741 14.7451 106.741 16.7617C106.741 18.7784 108.07 19.9926 109.797 19.9926C111.524 19.9926 112.832 18.7784 112.832 16.7617Z" fill="white"/>
<path d="M88.5726 10.929H86.2236C85.9668 10.929 85.7583 11.1331 85.7583 11.3844V12.4252C84.8508 11.2971 83.4768 10.7555 81.816 10.7555C78.516 10.7555 75.8584 12.9893 75.8584 16.3936C75.8584 19.7979 78.516 22.0317 81.816 22.0317C83.2574 22.0317 84.488 21.6198 85.3835 20.7785C85.4425 20.723 85.5329 20.7443 85.5667 20.8056V21.8912V21.8712C85.5667 22.0222 85.5607 22.3928 85.5498 22.5308C85.4883 23.2813 85.2618 23.8406 84.8917 24.2218C84.7833 24.3575 84.664 24.4802 84.5338 24.5911C84.0191 25.0277 83.3478 25.2661 82.5933 25.2661C81.1386 25.2661 79.9719 24.3881 79.6694 22.8895C79.626 22.676 79.4344 22.5226 79.2114 22.5226H76.6936C76.408 22.5226 76.1874 22.7715 76.2296 23.0477C76.6828 25.9859 79.2271 27.9919 82.5933 27.9919C83.2791 27.9919 83.9288 27.9081 84.5338 27.7512C87.0757 27.0904 88.8197 25.1245 88.9932 22.5237L89.0125 21.7933L89.0221 21.1998C89.0318 21.0204 89.0366 20.8363 89.0366 20.6463V11.3868C89.0366 11.1355 88.8281 10.9313 88.5714 10.9313L88.5726 10.929ZM85.5667 17.0048C85.2931 18.3736 84.0927 19.2551 82.5029 19.2551C80.6866 19.2551 79.3572 18.1058 79.3572 16.3924C79.3572 14.679 80.6866 13.5297 82.5029 13.5297C84.1758 13.5297 85.416 14.5056 85.6016 15.9983C85.6173 16.1257 85.627 16.2567 85.627 16.3924C85.627 16.606 85.6065 16.8101 85.5679 17.0036L85.5667 17.0048Z" fill="white"/>
<path d="M116.732 21.1349L117.542 19.4274C117.629 19.2445 117.854 19.1772 118.034 19.274C119.085 19.8392 120.529 20.2097 121.847 20.2097C123.442 20.2097 124.04 19.7979 124.04 19.1477C124.04 17.2396 116.841 19.1914 116.841 14.5292C116.841 12.3178 118.879 10.7555 122.356 10.7555C123.808 10.7555 125.4 11.0446 126.53 11.5638C126.762 11.6712 126.86 11.9438 126.752 12.1715L125.946 13.8554C125.862 14.0312 125.648 14.102 125.47 14.0159C124.404 13.4943 123.343 13.3149 122.357 13.3149C120.807 13.3149 120.142 13.7917 120.142 14.3994C120.142 16.3948 127.341 14.4643 127.341 19.0616C127.341 21.2304 125.281 22.7704 121.715 22.7704C119.911 22.7704 118.088 22.3361 116.931 21.7308C116.714 21.6175 116.629 21.3543 116.732 21.136V21.1349Z" fill="white"/>
<path d="M136.601 21.6777C136.684 21.8912 136.596 22.1355 136.388 22.2429C135.709 22.5981 134.825 22.768 133.925 22.768C131.112 22.768 129.473 21.3579 129.473 18.5825V14.2483C129.473 13.9958 129.263 13.7905 129.005 13.7905H128.102C127.844 13.7905 127.635 13.5852 127.635 13.3326V11.6464C127.635 11.3939 127.844 11.1885 128.102 11.1885H129.005C129.263 11.1885 129.473 10.9832 129.473 10.7307V8.80611C129.473 8.55359 129.682 8.34827 129.94 8.34827H132.459C132.717 8.34827 132.927 8.55359 132.927 8.80611V10.7307C132.927 10.9832 133.137 11.1885 133.395 11.1885H135.427C135.685 11.1885 135.894 11.3939 135.894 11.6464V13.3326C135.894 13.5852 135.685 13.7905 135.427 13.7905H133.395C133.137 13.7905 132.927 13.9958 132.927 14.2483V18.5388C132.927 19.5359 133.48 20.0787 134.411 20.0787C134.749 20.0787 135.088 20.0115 135.388 19.884C135.628 19.7814 135.908 19.9053 136 20.1448L136.598 21.6765L136.601 21.6777Z" fill="white"/>
<path d="M137.439 7.41491C137.439 6.3529 138.304 5.52808 139.588 5.52808C140.873 5.52808 141.737 6.30924 141.737 7.35001C141.737 8.4781 140.873 9.30175 139.588 9.30175C138.304 9.30175 137.439 8.4781 137.439 7.41491ZM138.329 10.929H140.848C141.106 10.929 141.316 11.1343 141.316 11.3868V22.1367C141.316 22.3892 141.106 22.5946 140.848 22.5946H138.329C138.071 22.5946 137.861 22.3892 137.861 22.1367V11.3868C137.861 11.1343 138.071 10.929 138.329 10.929Z" fill="white"/>
<path d="M142.763 16.7617C142.763 13.2489 145.532 10.7555 149.408 10.7555C151.721 10.7555 153.579 11.6629 154.53 13.3067C154.66 13.5309 154.576 13.8164 154.344 13.938L152.351 14.987C152.193 15.0696 152 15.0189 151.899 14.8737C151.264 13.9521 150.38 13.5321 149.386 13.5321C147.636 13.5321 146.263 14.725 146.263 16.7629C146.263 18.8008 147.636 19.9938 149.386 19.9938C150.38 19.9938 151.264 19.5926 151.899 18.658C151.999 18.5105 152.194 18.4586 152.353 18.5436L154.344 19.6067C154.576 19.7306 154.658 20.0162 154.525 20.2404C153.573 21.8476 151.717 22.7715 149.408 22.7715C145.532 22.7715 142.763 20.2782 142.763 16.7641V16.7617Z" fill="white"/>
<path d="M155.248 21.1349L156.058 19.4274C156.145 19.2445 156.371 19.1772 156.55 19.274C157.601 19.8392 159.045 20.2097 160.364 20.2097C161.958 20.2097 162.556 19.7979 162.556 19.1477C162.556 17.2396 155.357 19.1914 155.357 14.5292C155.357 12.3178 157.395 10.7555 160.872 10.7555C162.324 10.7555 163.917 11.0446 165.046 11.5638C165.279 11.6712 165.376 11.9438 165.268 12.1715L164.463 13.8554C164.378 14.0312 164.164 14.102 163.987 14.0159C162.92 13.4943 161.859 13.3149 160.873 13.3149C159.323 13.3149 158.658 13.7917 158.658 14.3994C158.658 16.3948 165.857 14.4643 165.857 19.0616C165.857 21.2304 163.797 22.7704 160.231 22.7704C158.427 22.7704 156.604 22.3361 155.447 21.7308C155.23 21.6175 155.145 21.3543 155.248 21.136V21.1349Z" fill="white"/>
<path fill-rule="evenodd" clip-rule="evenodd" d="M2.4549 29.7501H27.5561C28.9114 29.7501 30.011 28.6728 30.011 27.3453V2.65474C30.011 1.32605 28.9126 0.249878 27.5561 0.249878H2.4549C1.0996 0.249878 0 1.32605 0 2.65474V27.3453C0 28.674 1.0984 29.7501 2.4549 29.7501ZM17.4219 15.0059V15.0071V18.1742C17.4219 18.4799 17.2989 18.7737 17.0808 18.992C16.2339 19.835 15.3804 20.6715 14.5266 21.5082L14.526 21.5088L14.5247 21.5101C14.288 21.7421 14.0512 21.9741 13.8146 22.2063C13.5904 22.4258 13.2879 22.5485 12.9721 22.5485H4.99575C4.64502 22.5485 4.35938 22.2701 4.35938 21.9255V8.07336C4.35938 7.72998 4.64381 7.45032 4.99575 7.45032H12.9721C13.2891 7.45032 13.5916 7.57304 13.8146 7.79252C14.0508 8.02434 14.2872 8.256 14.5235 8.48763L14.5248 8.48887L14.5261 8.49011L14.5265 8.49048L14.5265 8.49049C15.3803 9.3273 16.2339 10.1638 17.0808 11.0069C17.3002 11.2252 17.4219 11.519 17.4219 11.8246V15.0059ZM16.5795 7.45035H19.4106V7.45153H25.1355C25.4863 7.45153 25.7719 7.73001 25.7719 8.07457V21.9267C25.7719 22.2701 25.4875 22.5498 25.1355 22.5498H16.5795C16.3673 22.5498 16.2613 22.2984 16.4107 22.1521L16.8181 21.7528C17.5659 21.02 18.3137 20.2872 19.0563 19.5502C19.2756 19.3319 19.3985 19.038 19.3985 18.7312V11.2689C19.3985 10.9621 19.2756 10.6682 19.0563 10.4499C18.3138 9.71302 17.5661 8.98033 16.8184 8.24757L16.8181 8.24726L16.4107 7.84801C16.2613 7.70169 16.3673 7.45035 16.5795 7.45035Z" fill="#FF5C00"/>
</g>
<defs>
<clipPath id="clip0_60_294">
<rect width="165.857" height="29.5002" fill="white" transform="translate(0 0.249878)"/>
</clipPath>
</defs>
</svg>
