<svg width="90" height="20" viewBox="0 0 90 20" fill="none" xmlns="http://www.w3.org/2000/svg">
<path d="M15.7003 8.00224V1.7041H18.8833V18.8962H15.7681V17.3817C14.781 18.5904 13.5045 19.1856 11.9378 19.1856C10.1677 19.1856 8.72095 18.573 7.56351 17.3469C6.42345 16.1217 5.84473 14.5723 5.84473 12.7337C5.84473 10.9123 6.42344 9.36301 7.58088 8.12041C8.7557 6.87782 10.219 6.26521 11.9387 6.26521C13.4193 6.26608 14.6784 6.8448 15.7003 8.00224ZM15.8533 12.7337C15.8533 11.7465 15.53 10.895 14.9 10.2311C14.27 9.53333 13.4359 9.19269 12.4322 9.19269C11.4286 9.19269 10.5935 9.53333 9.94703 10.2311C9.31704 10.9123 8.99379 11.7457 8.99379 12.7337C8.99379 13.7382 9.31704 14.5889 9.94703 15.2866C10.5935 15.9679 11.4277 16.3076 12.4322 16.3076C13.4367 16.3076 14.2709 15.967 14.9 15.2866C15.5465 14.5897 15.8533 13.7382 15.8533 12.7337Z" fill="white"/>
<path d="M33.7603 12.4618C33.7603 12.8363 33.7264 13.3125 33.6413 13.8573H24.3809C24.8406 15.6109 26.0319 16.479 27.9896 16.479C29.4199 16.479 30.7468 16.0706 31.9729 15.2364L33.2329 17.4835C31.667 18.607 29.8622 19.1857 27.8541 19.1857C25.6922 19.1857 24.0411 18.5557 22.8837 17.3132C21.7436 16.0706 21.1641 14.556 21.1641 12.7512C21.1641 10.8621 21.7601 9.31274 22.9515 8.12141C24.1428 6.8962 25.6921 6.28271 27.5812 6.28271C29.3687 6.28271 30.8493 6.84406 32.0068 7.9511C33.1642 9.03989 33.7603 10.5553 33.7603 12.4618ZM27.5812 8.90434C26.7809 8.90434 26.1005 9.14243 25.5383 9.6021C24.977 10.0618 24.5851 10.6918 24.3983 11.4912H30.6625C30.5096 10.6909 30.169 10.0618 29.6241 9.6021C29.0619 9.14243 28.398 8.90434 27.5812 8.90434Z" fill="white"/>
<path d="M45.3338 8.05218V6.588H48.3639V18.9123H45.3338V17.4829C44.2781 18.6229 42.9677 19.2017 41.4018 19.2017C39.6144 19.2017 38.1502 18.5891 37.0102 17.3465C35.8701 16.1039 35.2905 14.5545 35.2905 12.6828C35.2905 10.8276 35.8692 9.29565 37.0267 8.08694C38.1841 6.86172 39.6483 6.26563 41.401 6.26563C42.9338 6.26476 44.2442 6.86085 45.3338 8.05218ZM45.3851 12.7332C45.3851 11.7626 45.0445 10.9293 44.398 10.2306C43.7515 9.53287 42.9338 9.19224 41.9302 9.19224C40.9257 9.19224 40.0915 9.53287 39.445 10.2306C38.815 10.9284 38.4917 11.7626 38.4917 12.7332C38.4917 13.7203 38.815 14.5719 39.4623 15.2697C40.1088 15.9674 40.9265 16.3081 41.9302 16.3081C42.9173 16.3081 43.7515 15.9674 44.398 15.2697C45.0445 14.5545 45.3851 13.7038 45.3851 12.7332Z" fill="white"/>
<path d="M56.4488 1.7041L53.8959 18.8962H50.7129L53.2659 1.7041H56.4488Z" fill="white"/>
<path d="M69.4376 12.4612C69.4376 12.8357 69.4037 13.3119 69.3177 13.8568H60.0747C60.5343 15.6103 61.7265 16.4784 63.6669 16.4784C65.0972 16.4784 66.425 16.07 67.6502 15.2358L68.9093 17.4829C67.3434 18.6064 65.5386 19.1851 63.5305 19.1851C61.3685 19.1851 59.7175 18.5552 58.5601 17.3126C57.42 16.0526 56.8413 14.538 56.8413 12.7341C56.8413 10.845 57.4374 9.29565 58.6287 8.10432C59.8201 6.87911 61.3694 6.26562 63.2585 6.26562C65.0459 6.26562 66.5266 6.82696 67.684 7.934C68.858 9.04017 69.4376 10.5547 69.4376 12.4612ZM63.2585 8.90375C62.4582 8.90375 61.7778 9.14184 61.2165 9.60152C60.6543 10.0612 60.2632 10.6912 60.0755 11.4906H66.3398C66.1869 10.6903 65.8462 10.0612 65.3023 9.60152C64.7557 9.14184 64.0753 8.90375 63.2585 8.90375Z" fill="white"/>
<path d="M74.8163 18.8959H71.6333V6.57159H74.6798V8.22259C75.4115 6.89484 76.5524 6.23096 78.067 6.23096C78.5614 6.23096 79.0541 6.31611 79.5651 6.50294L79.3105 9.56685C78.7656 9.39654 78.2721 9.31137 77.8463 9.31137C76.9096 9.31137 76.1779 9.61812 75.6331 10.2472C75.1048 10.8772 74.8328 11.7966 74.8328 13.0392V18.895H74.8163V18.8959Z" fill="white"/>
<path d="M85.0811 19.2192C82.9365 19.2192 81.2517 18.4189 79.9917 16.8366L81.694 14.8276C82.1363 15.355 82.6472 15.7808 83.2598 16.0875C83.8724 16.3943 84.485 16.5472 85.0985 16.5472C85.5747 16.5472 85.9831 16.4282 86.3072 16.2066C86.6305 15.985 86.8016 15.6956 86.8016 15.3559C86.8016 14.9136 86.5123 14.5556 85.9162 14.3001C85.7294 14.2323 85.2532 14.0446 84.452 13.7388C83.7369 13.4833 83.2094 13.2617 82.8688 13.0749C81.4559 12.3936 80.7407 11.3387 80.7407 9.89194C80.7407 8.81966 81.1665 7.9342 82.0007 7.21905C82.8349 6.52129 83.9411 6.18066 85.354 6.18066C87.1075 6.18066 88.5369 6.77676 89.677 7.95071L88.0938 10.0101C87.2431 9.1933 86.289 8.7849 85.2688 8.7849C84.8595 8.7849 84.5198 8.88657 84.2643 9.09164C83.9915 9.29584 83.8724 9.53393 83.8724 9.82329C83.8724 10.3342 84.2296 10.7088 84.9621 10.9468C86.5792 11.5429 87.5663 11.9513 87.9243 12.1382C89.3198 12.8698 90.0002 13.9082 90.0002 15.2533C90.0002 16.4108 89.5406 17.364 88.6386 18.0957C87.7531 18.8447 86.5618 19.2192 85.0811 19.2192Z" fill="white"/>
<path d="M3.64149 6.58789V18.8957H0.529785V6.58789H3.64149Z" fill="white"/>
<path d="M0.555322 2.6531L0.15214 2.43759C-0.150254 2.27596 0.0400444 1.81629 0.368507 1.91535L0.80646 2.0483C1.0237 2.11434 1.22615 1.91101 1.16011 1.69464L1.02718 1.25669C0.928116 0.928228 1.38779 0.737929 1.54942 1.04032L1.76491 1.44352C1.87179 1.64337 2.15855 1.64337 2.26543 1.44352L2.48093 1.04032C2.64255 0.737929 3.10222 0.928228 3.00316 1.25669L2.87021 1.69464C2.80417 1.91188 3.00749 2.11434 3.22386 2.0483L3.66181 1.91535C3.99027 1.81629 4.18057 2.27596 3.87818 2.43759L3.475 2.6531C3.27514 2.75998 3.27514 3.04672 3.475 3.1536L3.87818 3.36911C4.18057 3.53073 3.99027 3.99041 3.66181 3.89135L3.22386 3.7584C3.00662 3.69236 2.80417 3.89568 2.87021 4.11205L3.00316 4.55001C3.10222 4.87847 2.64255 5.06877 2.48093 4.76637L2.26543 4.36318C2.15855 4.16332 1.87179 4.16332 1.76491 4.36318L1.54942 4.76637C1.38779 5.06877 0.928116 4.87847 1.02718 4.55001L1.16011 4.11205C1.22615 3.89482 1.02283 3.69236 0.80646 3.7584L0.368507 3.89135C0.0400444 3.99041 -0.150254 3.53073 0.15214 3.36911L0.555322 3.1536C0.75518 3.04672 0.75518 2.75998 0.555322 2.6531Z" fill="url(#paint0_linear_102_584)"/>
<defs>
<linearGradient id="paint0_linear_102_584" x1="4.02983" y1="2.90335" x2="0.000488281" y2="2.90335" gradientUnits="userSpaceOnUse">
<stop stop-color="#FF5C00"/>
<stop offset="1" stop-color="#FE8C00"/>
</linearGradient>
</defs>
</svg>
