<svg width="40" height="41" viewBox="0 0 40 41" fill="none" xmlns="http://www.w3.org/2000/svg">
<rect y="0.623047" width="40" height="40" rx="5" fill="url(#paint0_linear_513_857)"/>
<path fill-rule="evenodd" clip-rule="evenodd" d="M22.1146 11.6775C24.648 12.1461 26.4368 13.6669 27.143 15.9528C27.5004 17.1099 27.5367 17.7901 27.5367 23.3245V29.4217H25.6618H23.787V28.4144V27.4073L23.0597 28.0458C21.3737 29.5261 18.9141 30.1077 16.7184 29.545C13.8621 28.8135 12.4597 27.0487 12.4639 24.1919C12.4692 20.4801 14.9856 18.4639 19.5439 18.5192C20.7026 18.5334 21.9248 18.6695 22.5042 18.8491C23.8065 19.2529 23.787 19.258 23.787 18.5105C23.787 17.4047 23.0149 16.159 22.0183 15.6564C20.7659 15.0248 18.4296 15.0383 16.3811 15.6887C15.3213 16.0252 14.8566 16.0978 14.7988 15.9354C14.5965 15.3688 13.9243 13.1273 13.9219 13.012C13.9205 12.9418 14.5763 12.6446 15.3794 12.3517C17.6769 11.5135 19.9806 11.283 22.1146 11.6775ZM16.2876 24.0697C16.2876 22.9146 16.9337 22.0683 18.1624 21.6136C19.0513 21.2849 21.7805 21.3449 23.0469 21.721C23.7797 21.9387 23.787 21.9509 23.7838 22.9677C23.7769 25.1301 22.0499 26.6588 19.6138 26.6588C17.4257 26.6588 16.2876 25.7729 16.2876 24.0697Z" fill="white"/>
<defs>
<linearGradient id="paint0_linear_513_857" x1="40" y1="20.623" x2="0" y2="20.623" gradientUnits="userSpaceOnUse">
<stop stop-color="#FF5C00"/>
<stop offset="1" stop-color="#FE8C00"/>
</linearGradient>
</defs>
</svg>
