<svg width="40" height="41" viewBox="0 0 40 41" fill="none" xmlns="http://www.w3.org/2000/svg">
<rect y="0.623047" width="40" height="40" rx="5" fill="url(#paint0_linear_513_855)"/>
<path fill-rule="evenodd" clip-rule="evenodd" d="M10.3596 9.31055C9.43642 9.31055 8.6875 10.0367 8.6875 10.9312V30.3154C8.6875 31.21 9.43651 31.9355 10.3596 31.9355H29.6404C30.5639 31.9355 31.3125 31.21 31.3125 30.3151V10.9312C31.3125 10.0367 30.5639 9.31055 29.6404 9.31055H10.3596ZM15.5628 18.0589V28.2447H12.1772V18.0589H15.5628ZM15.786 14.9088C15.786 15.8863 15.0511 16.6684 13.8707 16.6684L13.8486 16.6683C12.7123 16.6683 11.9777 15.8862 11.9777 14.9087C11.9777 13.9091 12.7344 13.1487 13.8932 13.1487C15.0511 13.1487 15.7639 13.9091 15.786 14.9088ZM20.8222 28.2447H17.4368C17.4368 28.2447 17.4812 19.0148 17.437 18.0593H20.8224V19.501C21.2725 18.8071 22.0779 17.8201 23.8737 17.8201C26.1011 17.8201 27.7711 19.276 27.7711 22.4045V28.2447H24.3859V22.7962C24.3859 21.4268 23.8956 20.4928 22.6709 20.4928C21.7354 20.4928 21.1783 21.1226 20.9337 21.7311C20.8443 21.9483 20.8222 22.2531 20.8222 22.5571V28.2447Z" fill="white"/>
<defs>
<linearGradient id="paint0_linear_513_855" x1="40" y1="20.623" x2="0" y2="20.623" gradientUnits="userSpaceOnUse">
<stop stop-color="#FF5C00"/>
<stop offset="1" stop-color="#FE8C00"/>
</linearGradient>
</defs>
</svg>
