<svg width="40" height="40" viewBox="0 0 40 40" fill="none" xmlns="http://www.w3.org/2000/svg">
<rect width="40" height="40" rx="5" fill="white"/>
<path fill-rule="evenodd" clip-rule="evenodd" d="M10.3596 8.6875C9.43642 8.6875 8.6875 9.41362 8.6875 10.3082V29.6923C8.6875 30.587 9.43651 31.3125 10.3596 31.3125H29.6404C30.5639 31.3125 31.3125 30.5869 31.3125 29.6921V10.3082C31.3125 9.41362 30.5639 8.6875 29.6404 8.6875H10.3596ZM15.5628 17.4359V27.6217H12.1772V17.4359H15.5628ZM15.786 14.2858C15.786 15.2632 15.0511 16.0454 13.8707 16.0454L13.8486 16.0453C12.7123 16.0453 11.9777 15.2631 11.9777 14.2857C11.9777 13.286 12.7344 12.5257 13.8932 12.5257C15.0511 12.5257 15.7639 13.286 15.786 14.2858ZM20.8222 27.6217H17.4368C17.4368 27.6217 17.4812 18.3918 17.437 17.4362H20.8224V18.878C21.2725 18.1841 22.0779 17.1971 23.8737 17.1971C26.1011 17.1971 27.7711 18.6529 27.7711 21.7814V27.6217H24.3859V22.1731C24.3859 20.8037 23.8956 19.8697 22.6709 19.8697C21.7354 19.8697 21.1783 20.4996 20.9337 21.1081C20.8443 21.3252 20.8222 21.6301 20.8222 21.9341V27.6217Z" fill="black"/>
</svg>
