<svg width="40" height="40" viewBox="0 0 40 40" fill="none" xmlns="http://www.w3.org/2000/svg">
<rect width="40" height="40" rx="5" fill="white"/>
<path fill-rule="evenodd" clip-rule="evenodd" d="M22.1146 11.0545C24.648 11.523 26.4368 13.0438 27.143 15.3297C27.5004 16.4868 27.5367 17.1671 27.5367 22.7015V28.7987H25.6618H23.787V27.7914V26.7843L23.0597 27.4227C21.3737 28.9031 18.9141 29.4847 16.7184 28.922C13.8621 28.1904 12.4597 26.4257 12.4639 23.5688C12.4692 19.857 14.9856 17.8409 19.5439 17.8961C20.7026 17.9103 21.9248 18.0465 22.5042 18.2261C23.8065 18.6299 23.787 18.635 23.787 17.8874C23.787 16.7817 23.0149 15.536 22.0183 15.0333C20.7659 14.4018 18.4296 14.4152 16.3811 15.0657C15.3213 15.4022 14.8566 15.4748 14.7988 15.3124C14.5965 14.7458 13.9243 12.5042 13.9219 12.389C13.9205 12.3187 14.5763 12.0215 15.3794 11.7287C17.6769 10.8905 19.9806 10.66 22.1146 11.0545ZM16.2876 23.4467C16.2876 22.2915 16.9337 21.4453 18.1624 20.9906C19.0513 20.6618 21.7805 20.7218 23.0469 21.098C23.7797 21.3156 23.787 21.3279 23.7838 22.3446C23.7769 24.507 22.0499 26.0357 19.6138 26.0357C17.4257 26.0357 16.2876 25.1498 16.2876 23.4467Z" fill="black"/>
</svg>
